<?xml version="1.0" standalone="no"?>
<!DOCTYPE svg PUBLIC "-//W3C//DTD SVG 20010904//EN"
 "http://www.w3.org/TR/2001/REC-SVG-20010904/DTD/svg10.dtd">
<svg version="1.0" xmlns="http://www.w3.org/2000/svg"
 width="320.000000pt" height="320.000000pt" viewBox="0 0 320.000000 320.000000"
 preserveAspectRatio="xMidYMid meet">
<metadata>
Created by potrace 1.16, written by Peter Selinger 2001-2019
</metadata>
<g transform="translate(0.000000,320.000000) scale(0.100000,-0.100000)"
fill="#000000" stroke="none">
<path d="M1965 2699 c-225 -54 -524 -126 -663 -160 -139 -33 -259 -68 -267
-76 -8 -8 -15 -23 -15 -34 0 -10 45 -112 100 -225 55 -114 100 -217 100 -229
0 -50 -25 -62 -230 -110 -162 -38 -199 -50 -222 -72 l-28 -27 0 -244 c0 -155
4 -251 11 -264 6 -11 26 -26 45 -34 32 -13 46 -12 209 26 96 22 186 46 201 52
50 23 54 47 54 298 0 247 2 261 53 308 20 19 122 47 568 153 432 104 548 135
562 151 15 18 17 47 17 282 0 288 -4 307 -58 305 -15 0 -211 -45 -437 -100z"/>
<path d="M1925 1883 c-285 -67 -490 -121 -504 -131 -54 -40 -51 -55 54 -277
105 -221 110 -248 59 -281 -13 -9 -189 -54 -391 -101 -206 -48 -376 -92 -385
-101 -16 -14 -18 -41 -18 -287 0 -251 1 -273 18 -288 10 -10 27 -17 37 -17 27
0 1016 230 1037 241 34 18 20 66 -77 266 -59 122 -95 208 -95 228 0 62 17 69
396 160 330 79 350 85 376 114 l28 31 0 264 c0 271 0 274 -40 288 -8 3 -231
-46 -495 -109z"/>
</g>
</svg>
