<svg width="32" height="32" viewBox="0 0 32 32" fill="none" xmlns="http://www.w3.org/2000/svg">
<g clip-path="url(#clip0_4133_10736)">
<rect width="32" height="32" fill="white"/>
<circle cx="16" cy="16" r="16" fill="url(#paint0_linear_4133_10736)"/>
<path d="M3.198 16.888C3.198 16.472 3.288 16.102 3.468 15.778C3.648 15.45 3.898 15.196 4.218 15.016C4.542 14.832 4.908 14.74 5.316 14.74C5.816 14.74 6.244 14.872 6.6 15.136C6.956 15.4 7.194 15.76 7.314 16.216H6.186C6.102 16.04 5.982 15.906 5.826 15.814C5.674 15.722 5.5 15.676 5.304 15.676C4.988 15.676 4.732 15.786 4.536 16.006C4.34 16.226 4.242 16.52 4.242 16.888C4.242 17.256 4.34 17.55 4.536 17.77C4.732 17.99 4.988 18.1 5.304 18.1C5.5 18.1 5.674 18.054 5.826 17.962C5.982 17.87 6.102 17.736 6.186 17.56H7.314C7.194 18.016 6.956 18.376 6.6 18.64C6.244 18.9 5.816 19.03 5.316 19.03C4.908 19.03 4.542 18.94 4.218 18.76C3.898 18.576 3.648 18.322 3.468 17.998C3.288 17.674 3.198 17.304 3.198 16.888ZM10.2703 19L9.39431 17.41H9.14831V19H8.12231V14.788H9.84431C10.1763 14.788 10.4583 14.846 10.6903 14.962C10.9263 15.078 11.1023 15.238 11.2183 15.442C11.3343 15.642 11.3923 15.866 11.3923 16.114C11.3923 16.394 11.3123 16.644 11.1523 16.864C10.9963 17.084 10.7643 17.24 10.4563 17.332L11.4283 19H10.2703ZM9.14831 16.684H9.78431C9.97231 16.684 10.1123 16.638 10.2043 16.546C10.3003 16.454 10.3483 16.324 10.3483 16.156C10.3483 15.996 10.3003 15.87 10.2043 15.778C10.1123 15.686 9.97231 15.64 9.78431 15.64H9.14831V16.684ZM15.8284 14.788L14.3704 17.608V19H13.3444V17.608L11.8864 14.788H13.0504L13.8664 16.552L14.6764 14.788H15.8284ZM19.6318 16.144C19.6318 16.388 19.5758 16.612 19.4638 16.816C19.3518 17.016 19.1798 17.178 18.9478 17.302C18.7158 17.426 18.4278 17.488 18.0838 17.488H17.4478V19H16.4218V14.788H18.0838C18.4198 14.788 18.7038 14.846 18.9358 14.962C19.1678 15.078 19.3418 15.238 19.4578 15.442C19.5738 15.646 19.6318 15.88 19.6318 16.144ZM18.0058 16.672C18.2018 16.672 18.3478 16.626 18.4438 16.534C18.5398 16.442 18.5878 16.312 18.5878 16.144C18.5878 15.976 18.5398 15.846 18.4438 15.754C18.3478 15.662 18.2018 15.616 18.0058 15.616H17.4478V16.672H18.0058ZM23.3759 14.788V15.61H22.2599V19H21.2339V15.61H20.1179V14.788H23.3759ZM26.0628 19.042C25.6668 19.042 25.3028 18.95 24.9708 18.766C24.6428 18.582 24.3808 18.326 24.1848 17.998C23.9928 17.666 23.8968 17.294 23.8968 16.882C23.8968 16.47 23.9928 16.1 24.1848 15.772C24.3808 15.444 24.6428 15.188 24.9708 15.004C25.3028 14.82 25.6668 14.728 26.0628 14.728C26.4588 14.728 26.8208 14.82 27.1488 15.004C27.4808 15.188 27.7408 15.444 27.9288 15.772C28.1208 16.1 28.2168 16.47 28.2168 16.882C28.2168 17.294 28.1208 17.666 27.9288 17.998C27.7368 18.326 27.4768 18.582 27.1488 18.766C26.8208 18.95 26.4588 19.042 26.0628 19.042ZM26.0628 18.106C26.3988 18.106 26.6668 17.994 26.8668 17.77C27.0708 17.546 27.1728 17.25 27.1728 16.882C27.1728 16.51 27.0708 16.214 26.8668 15.994C26.6668 15.77 26.3988 15.658 26.0628 15.658C25.7228 15.658 25.4508 15.768 25.2468 15.988C25.0468 16.208 24.9468 16.506 24.9468 16.882C24.9468 17.254 25.0468 17.552 25.2468 17.776C25.4508 17.996 25.7228 18.106 26.0628 18.106Z" fill="white"/>
</g>
<defs>
<linearGradient id="paint0_linear_4133_10736" x1="16" y1="0" x2="16" y2="32" gradientUnits="userSpaceOnUse">
<stop stop-color="#7885F9"/>
<stop offset="1" stop-color="#3846C6"/>
</linearGradient>
<clipPath id="clip0_4133_10736">
<rect width="32" height="32" fill="white"/>
</clipPath>
</defs>
</svg>
