<svg width="149" height="205" viewBox="0 0 149 205" fill="none" xmlns="http://www.w3.org/2000/svg">
<g clip-path="url(#clip0_3404_10247)">
<path d="M86.4698 124.936C120.97 124.936 148.938 96.9678 148.938 62.4678C148.938 27.9678 120.97 0 86.4698 0C51.9697 0 24.002 27.9678 24.002 62.4678C24.002 96.9678 51.9697 124.936 86.4698 124.936Z" fill="#F9F8FF"/>
<path d="M0.654297 14.9991C0.654297 37.7274 14.9128 56.1189 32.5336 56.1189L0.654297 14.9991Z" fill="#2F2E41"/>
<path d="M32.5337 56.1187C32.5337 33.1351 48.4454 14.537 68.1092 14.537L32.5337 56.1187Z" fill="#6271FF"/>
<path d="M12.2051 17.059C12.2051 38.6484 21.2975 56.1183 32.5339 56.1183L12.2051 17.059Z" fill="#6271FF"/>
<path d="M32.5337 56.1183C32.5337 26.7503 50.9251 2.98608 73.6534 2.98608L32.5337 56.1183Z" fill="#2F2E41"/>
<path d="M25.8271 56.4084C25.8271 56.4084 30.3482 56.2691 31.7107 55.2989C33.0732 54.3287 38.6651 53.1702 39.0031 54.7262C39.3412 56.2823 45.7974 62.4652 40.6932 62.5064C35.589 62.5476 28.8333 61.7113 27.4734 60.883C26.1135 60.0546 25.8271 56.4084 25.8271 56.4084Z" fill="#A8A8A8"/>
<path opacity="0.2" d="M40.7843 61.965C35.6801 62.0061 28.9244 61.1699 27.5645 60.3415C26.5289 59.7107 26.1162 57.4471 25.9781 56.4027C25.8824 56.4068 25.8271 56.4086 25.8271 56.4086C25.8271 56.4086 26.1135 60.0548 27.4734 60.8832C28.8333 61.7116 35.589 62.5478 40.6932 62.5066C42.1666 62.4947 42.6755 61.9705 42.6476 61.1941C42.4429 61.6632 41.8809 61.9561 40.7843 61.965Z" fill="black"/>
<path d="M58.9017 131.957C89.1905 131.957 113.744 128.617 113.744 124.496C113.744 120.375 89.1905 117.035 58.9017 117.035C28.613 117.035 4.05908 120.375 4.05908 124.496C4.05908 128.617 28.613 131.957 58.9017 131.957Z" fill="#C2D6F3"/>
<path d="M58.9018 130.759C84.3314 130.759 104.946 127.955 104.946 124.495C104.946 121.036 84.3314 118.231 58.9018 118.231C33.4722 118.231 12.8574 121.036 12.8574 124.495C12.8574 127.955 33.4722 130.759 58.9018 130.759Z" fill="#7189AC"/>
<path d="M91.7485 196.092C119.284 196.092 141.605 193.056 141.605 189.31C141.605 185.564 119.284 182.527 91.7485 182.527C64.2133 182.527 41.8916 185.564 41.8916 189.31C41.8916 193.056 64.2133 196.092 91.7485 196.092Z" fill="#DFDFDF"/>
<path d="M91.4556 75.9587C91.4556 75.9587 129.581 65.4008 131.928 99.4208C134.274 133.441 100.547 143.119 126.942 149.864" stroke="#2F2E41" stroke-width="0.586552" stroke-miterlimit="10"/>
<path d="M93.5083 46.6307H32.5068V117.604H93.5083V46.6307Z" fill="#2F2E41"/>
<path d="M99.6672 39.5923H26.3481V64.814H99.6672V39.5923Z" fill="#93ACD1"/>
<path d="M99.6672 69.5067H26.3481V94.7285H99.6672V69.5067Z" fill="#93ACD1"/>
<path d="M99.6672 99.4205H26.3481V124.642H99.6672V99.4205Z" fill="#93ACD1"/>
<path opacity="0.4" d="M85.0035 43.9912H80.311V48.6836H85.0035V43.9912Z" fill="#C0D6F6"/>
<path opacity="0.75" d="M91.7486 43.9912H87.0562V48.6836H91.7486V43.9912Z" fill="#CBE0FF"/>
<path d="M98.4942 43.9912H93.8018V48.6836H98.4942V43.9912Z" fill="#CBE0FF"/>
<path opacity="0.4" d="M85.0035 73.6121H80.311V78.3045H85.0035V73.6121Z" fill="#C0D6F6"/>
<path opacity="0.75" d="M91.7486 73.6121H87.0562V78.3045H91.7486V73.6121Z" fill="#CBE0FF"/>
<path d="M98.4942 73.6121H93.8018V78.3045H98.4942V73.6121Z" fill="#CBE0FF"/>
<path opacity="0.4" d="M85.0035 103.233H80.311V107.925H85.0035V103.233Z" fill="#C0D6F6"/>
<path opacity="0.75" d="M91.7486 103.233H87.0562V107.925H91.7486V103.233Z" fill="#CBE0FF"/>
<path d="M98.4942 103.233H93.8018V107.925H98.4942V103.233Z" fill="#CBE0FF"/>
<path d="M93.5087 180.952C106.304 180.952 116.677 170.578 116.677 157.783C116.677 144.987 106.304 134.614 93.5087 134.614C80.7129 134.614 70.3398 144.987 70.3398 157.783C70.3398 170.578 80.7129 180.952 93.5087 180.952Z" fill="#2F2E41"/>
<path d="M89.9888 175.966H82.9502V188.576H89.9888V175.966Z" fill="#2F2E41"/>
<path d="M104.066 175.966H97.0278V188.576H104.066V175.966Z" fill="#2F2E41"/>
<path d="M88.8157 190.923C92.0552 190.923 94.6812 189.938 94.6812 188.723C94.6812 187.508 92.0552 186.524 88.8157 186.524C85.5763 186.524 82.9502 187.508 82.9502 188.723C82.9502 189.938 85.5763 190.923 88.8157 190.923Z" fill="#2F2E41"/>
<path d="M102.893 190.629C106.133 190.629 108.759 189.644 108.759 188.43C108.759 187.215 106.133 186.23 102.893 186.23C99.6539 186.23 97.0278 187.215 97.0278 188.43C97.0278 189.644 99.6539 190.629 102.893 190.629Z" fill="#2F2E41"/>
<path d="M94.0947 159.836C98.468 159.836 102.013 156.291 102.013 151.917C102.013 147.544 98.468 143.999 94.0947 143.999C89.7215 143.999 86.1763 147.544 86.1763 151.917C86.1763 156.291 89.7215 159.836 94.0947 159.836Z" fill="white"/>
<path d="M94.0951 154.557C95.5528 154.557 96.7345 153.375 96.7345 151.917C96.7345 150.46 95.5528 149.278 94.0951 149.278C92.6373 149.278 91.4556 150.46 91.4556 151.917C91.4556 153.375 92.6373 154.557 94.0951 154.557Z" fill="#2F2E41"/>
<path d="M71.0339 136.236C69.1632 127.858 75.1433 119.392 84.3909 117.327C93.6385 115.262 102.652 120.38 104.523 128.759C106.393 137.137 100.265 140.227 91.017 142.292C81.7693 144.357 72.9047 144.614 71.0339 136.236Z" fill="#6271FF"/>
<path d="M115.238 153.162C121.12 150.644 125.248 147.107 124.457 145.26C123.667 143.414 118.258 143.958 112.376 146.475C106.495 148.992 102.367 152.53 103.158 154.377C103.948 156.223 109.357 155.679 115.238 153.162Z" fill="#2F2E41"/>
<path d="M71.8336 168.705C77.7154 166.188 81.8429 162.65 81.0526 160.804C80.2623 158.957 74.8535 159.501 68.9717 162.018C63.0899 164.536 58.9624 168.074 59.7527 169.92C60.543 171.766 65.9519 171.223 71.8336 168.705Z" fill="#2F2E41"/>
<path d="M106.999 164.528C106.999 166.795 101.161 171.273 94.6817 171.273C88.2028 171.273 82.0708 167.089 82.0708 164.821C82.0708 162.553 88.2028 163.061 94.6817 163.061C101.161 163.061 106.999 162.26 106.999 164.528Z" fill="white"/>
<path d="M49.2202 147.74C49.2202 147.74 65.7518 143.162 66.7691 157.913C67.7864 172.664 53.1624 176.861 64.6073 179.786" stroke="#2F2E41" stroke-width="0.846204" stroke-miterlimit="10"/>
<path fill-rule="evenodd" clip-rule="evenodd" d="M40.4894 144.705L45.3415 142.881C46.833 142.32 48.4969 143.075 49.0577 144.566L51.0541 149.875C51.6149 151.367 50.8605 153.031 49.3689 153.591L44.5168 155.416L43.8164 153.553L40.2149 154.999C39.8452 155.147 39.4252 154.968 39.2768 154.598C39.1284 154.228 39.3078 153.808 39.6775 153.66L43.3085 152.202L41.7419 148.036L37.9902 149.542C37.6205 149.691 37.2005 149.511 37.0521 149.141C36.9037 148.772 37.0831 148.352 37.4528 148.203L41.234 146.686L40.4894 144.705Z" fill="#2F2E41"/>
</g>
<defs>
<clipPath id="clip0_3404_10247">
<rect width="148.591" height="205" fill="white"/>
</clipPath>
</defs>
</svg>
